# beaver, generated by tools/make_beaver.py - no third-party model was used
mtllib beaver.mtl

v -0.35 0.3 0.3
v -0.35 0.4 0.3
v -0.35 0.4 0.2
v -0.35 0.3 0.2
v -0.25 0.3 0.2
v -0.25 0.3 0.3
v -0.25 0.4 0.3
v -0.25 0.4 0.2
v -0.35 0.5 0.3
v -0.35 0.5 0.2
v -0.25 0.5 0.3
v -0.25 0.5 0.2
v -0.35 0.6 0.1
v -0.35 0.7 0.1
v -0.35 0.7 0.0
v -0.35 0.6 0.0
v -0.25 0.7 0.1
v -0.25 0.7 0.0
v -0.25 0.6 0.0
v -0.25 0.6 0.1
v -0.25 0.0 0.0
v -0.25 0.1 0.0
v -0.25 0.1 -0.1
v -0.25 0.0 -0.1
v -0.15 0.0 -0.1
v -0.15 0.0 0.0
v -0.15 0.1 -0.1
v -0.25 0.0 0.1
v -0.25 0.1 0.1
v -0.15 0.0 0.1
v -0.25 0.0 0.2
v -0.25 0.1 0.2
v -0.15 0.0 0.2
v -0.25 0.0 0.3
v -0.25 0.1 0.3
v -0.15 0.0 0.3
v -0.25 0.0 0.4
v -0.25 0.1 0.4
v -0.15 0.1 0.4
v -0.15 0.1 0.3
v -0.15 0.0 0.4
v -0.25 0.2 -0.1
v -0.25 0.2 -0.2
v -0.25 0.1 -0.2
v -0.15 0.1 -0.2
v -0.15 0.2 -0.2
v -0.25 0.2 0.0
v -0.25 0.2 0.1
v -0.25 0.2 0.2
v -0.25 0.2 0.3
v -0.15 0.2 0.3
v -0.25 0.3 -0.1
v -0.25 0.3 -0.2
v -0.15 0.3 -0.2
v -0.25 0.3 0.0
v -0.25 0.3 0.1
v -0.15 0.3 0.3
v -0.25 0.4 -0.1
v -0.25 0.4 -0.2
v -0.15 0.4 -0.1
v -0.15 0.4 -0.2
v -0.25 0.4 0.0
v -0.25 0.4 0.1
v -0.15 0.4 0.3
v -0.25 0.5 0.0
v -0.25 0.5 -0.1
v -0.15 0.5 -0.1
v -0.25 0.5 0.1
v -0.15 0.5 0.3
v -0.25 0.6 -0.1
v -0.15 0.6 -0.1
v -0.25 0.6 0.2
v -0.25 0.6 0.3
v -0.15 0.6 0.3
v -0.25 0.7 -0.1
v -0.15 0.7 -0.1
v -0.25 0.7 0.2
v -0.25 0.7 0.3
v -0.15 0.7 0.3
v -0.25 0.8 0.0
v -0.25 0.8 -0.1
v -0.15 0.8 -0.1
v -0.25 0.8 0.1
v -0.25 0.8 0.2
v -0.25 0.8 0.3
v -0.15 0.8 0.3
v -0.15 0.8 0.2
v -0.15 0.9 -0.1
v -0.15 0.9 0.0
v -0.15 0.8 0.0
v -0.25 0.9 0.0
v -0.25 0.9 -0.1
v -0.25 0.9 0.1
v -0.15 0.9 0.1
v -0.25 0.9 0.2
v -0.15 0.9 0.2
v -0.15 0.0 -0.3
v -0.15 0.1 -0.3
v -0.15 0.1 -0.4
v -0.15 0.0 -0.4
v -0.05 0.1 -0.3
v -0.05 0.1 -0.4
v -0.05 0.0 -0.4
v -0.05 0.0 -0.3
v -0.15 0.0 -0.2
v -0.05 0.1 -0.2
v -0.05 0.0 -0.2
v -0.05 0.0 -0.1
v -0.05 0.0 0.0
v -0.05 0.0 0.1
v -0.05 0.0 0.2
v -0.05 0.1 0.2
v -0.05 0.1 0.3
v -0.05 0.0 0.3
v -0.05 0.1 0.4
v -0.05 0.0 0.4
v -0.05 0.2 -0.2
v -0.05 0.2 0.3
v -0.05 0.3 -0.2
v -0.05 0.3 0.3
v -0.05 0.4 -0.2
v -0.05 0.4 0.3
v -0.15 0.5 -0.2
v -0.05 0.5 -0.2
v -0.05 0.5 0.3
v -0.15 0.6 -0.2
v -0.05 0.6 -0.2
v -0.05 0.6 0.3
v -0.15 0.7 -0.2
v -0.05 0.7 -0.2
v -0.05 0.7 0.3
v -0.15 0.8 -0.2
v -0.05 0.8 -0.1
v -0.05 0.8 -0.2
v -0.05 0.8 0.0
v -0.05 0.8 0.3
v -0.05 0.8 0.2
v -0.05 0.9 0.1
v -0.05 0.9 0.0
v -0.05 0.9 0.2
v 0.05 0.1 -0.3
v 0.05 0.1 -0.4
v 0.05 0.0 -0.4
v 0.05 0.0 -0.3
v 0.05 0.0 -0.2
v 0.05 0.0 -0.1
v 0.05 0.0 0.0
v 0.05 0.0 0.1
v 0.05 0.0 0.2
v 0.05 0.1 0.2
v 0.05 0.2 -0.3
v 0.05 0.2 -0.2
v 0.05 0.1 -0.2
v -0.05 0.2 -0.3
v 0.05 0.1 0.3
v 0.05 0.2 0.3
v 0.05 0.3 -0.2
v 0.05 0.3 0.3
v 0.05 0.4 -0.2
v 0.05 0.4 0.3
v 0.05 0.5 -0.2
v 0.05 0.5 0.3
v 0.05 0.6 -0.2
v 0.05 0.6 0.3
v 0.05 0.7 -0.2
v 0.05 0.7 0.3
v 0.05 0.8 -0.1
v 0.05 0.8 -0.2
v 0.05 0.8 0.0
v 0.05 0.8 0.3
v 0.05 0.8 0.2
v 0.05 0.9 0.1
v 0.05 0.9 0.0
v 0.05 0.9 0.2
v 0.15 0.0 -0.4
v 0.15 0.1 -0.4
v 0.15 0.1 -0.3
v 0.15 0.0 -0.3
v 0.15 0.1 -0.2
v 0.15 0.0 -0.2
v 0.15 0.1 -0.1
v 0.15 0.0 -0.1
v 0.15 0.0 0.0
v 0.15 0.0 0.1
v 0.15 0.0 0.2
v 0.05 0.0 0.3
v 0.15 0.0 0.3
v 0.05 0.0 0.4
v 0.05 0.1 0.4
v 0.15 0.1 0.4
v 0.15 0.1 0.3
v 0.15 0.0 0.4
v 0.15 0.2 -0.2
v 0.15 0.2 0.3
v 0.15 0.3 -0.2
v 0.15 0.3 0.3
v 0.15 0.4 -0.2
v 0.15 0.4 0.3
v 0.15 0.5 -0.2
v 0.15 0.5 -0.1
v 0.15 0.4 -0.1
v 0.15 0.5 0.3
v 0.15 0.6 -0.2
v 0.15 0.6 -0.1
v 0.15 0.6 0.3
v 0.15 0.7 -0.2
v 0.15 0.7 -0.1
v 0.15 0.7 0.3
v 0.15 0.8 -0.2
v 0.15 0.8 -0.1
v 0.15 0.8 0.0
v 0.15 0.8 0.3
v 0.15 0.8 0.2
v 0.15 0.9 0.1
v 0.15 0.9 0.0
v 0.15 0.9 0.2
v 0.25 0.0 -0.1
v 0.25 0.1 -0.1
v 0.25 0.1 0.0
v 0.25 0.0 0.0
v 0.25 0.1 0.1
v 0.25 0.0 0.1
v 0.25 0.1 0.2
v 0.25 0.0 0.2
v 0.25 0.1 0.3
v 0.25 0.0 0.3
v 0.25 0.1 0.4
v 0.25 0.0 0.4
v 0.25 0.1 -0.2
v 0.25 0.2 -0.2
v 0.25 0.2 -0.1
v 0.25 0.2 0.0
v 0.25 0.2 0.1
v 0.25 0.2 0.2
v 0.25 0.2 0.3
v 0.25 0.3 -0.2
v 0.25 0.3 -0.1
v 0.25 0.3 0.0
v 0.25 0.3 0.1
v 0.25 0.3 0.2
v 0.25 0.3 0.3
v 0.25 0.4 -0.2
v 0.25 0.4 -0.1
v 0.25 0.4 0.0
v 0.25 0.4 0.1
v 0.25 0.4 0.2
v 0.25 0.4 0.3
v 0.25 0.5 -0.1
v 0.25 0.5 0.0
v 0.25 0.5 0.1
v 0.25 0.5 0.2
v 0.25 0.5 0.3
v 0.25 0.6 -0.1
v 0.25 0.6 0.0
v 0.25 0.6 0.1
v 0.25 0.6 0.2
v 0.25 0.6 0.3
v 0.25 0.7 -0.1
v 0.25 0.7 0.0
v 0.25 0.7 0.1
v 0.25 0.7 0.2
v 0.25 0.7 0.3
v 0.25 0.8 -0.1
v 0.25 0.8 0.0
v 0.25 0.8 0.1
v 0.25 0.8 0.2
v 0.25 0.8 0.3
v 0.25 0.9 -0.1
v 0.25 0.9 0.0
v 0.15 0.9 -0.1
v 0.25 0.9 0.1
v 0.25 0.9 0.2
v 0.35 0.3 0.2
v 0.35 0.4 0.2
v 0.35 0.4 0.3
v 0.35 0.3 0.3
v 0.35 0.5 0.2
v 0.35 0.5 0.3
v 0.35 0.6 0.0
v 0.35 0.7 0.0
v 0.35 0.7 0.1
v 0.35 0.6 0.1
vt 0.25 0.5
vt 0.416667 0.5
vt 0.083333 0.5
vt 0.583333 0.5
vt 0.75 0.5
vt 0.916667 0.5
vn -1 0 0
vn 0 -1 0
vn 0 0 1
vn 0 0 -1
vn 0 1 0
vn 1 0 0

usemtl beaver
f 1/1/1 2/1/1 3/1/1
f 1/1/1 3/1/1 4/1/1
f 1/1/2 4/1/2 5/1/2
f 1/1/2 5/1/2 6/1/2
f 6/1/3 7/1/3 2/1/3
f 6/1/3 2/1/3 1/1/3
f 4/1/4 3/1/4 8/1/4
f 4/1/4 8/1/4 5/1/4
f 2/1/1 9/1/1 10/1/1
f 2/1/1 10/1/1 3/1/1
f 10/1/5 9/1/5 11/1/5
f 10/1/5 11/1/5 12/1/5
f 7/1/3 11/1/3 9/1/3
f 7/1/3 9/1/3 2/1/3
f 3/1/4 10/1/4 12/1/4
f 3/1/4 12/1/4 8/1/4
f 13/2/1 14/2/1 15/2/1
f 13/2/1 15/2/1 16/2/1
f 15/2/5 14/2/5 17/2/5
f 15/2/5 17/2/5 18/2/5
f 13/2/2 16/2/2 19/2/2
f 13/2/2 19/2/2 20/2/2
f 20/2/3 17/2/3 14/2/3
f 20/2/3 14/2/3 13/2/3
f 16/2/4 15/2/4 18/2/4
f 16/2/4 18/2/4 19/2/4
f 21/3/1 22/3/1 23/3/1
f 21/3/1 23/3/1 24/3/1
f 21/3/2 24/3/2 25/3/2
f 21/3/2 25/3/2 26/3/2
f 24/3/4 23/3/4 27/3/4
f 24/3/4 27/3/4 25/3/4
f 28/3/1 29/3/1 22/3/1
f 28/3/1 22/3/1 21/3/1
f 28/3/2 21/3/2 26/3/2
f 28/3/2 26/3/2 30/3/2
f 31/3/1 32/3/1 29/3/1
f 31/3/1 29/3/1 28/3/1
f 31/3/2 28/3/2 30/3/2
f 31/3/2 30/3/2 33/3/2
f 34/1/1 35/1/1 32/1/1
f 34/1/1 32/1/1 31/1/1
f 34/1/2 31/1/2 33/1/2
f 34/1/2 33/1/2 36/1/2
f 37/1/1 38/1/1 35/1/1
f 37/1/1 35/1/1 34/1/1
f 35/1/5 38/1/5 39/1/5
f 35/1/5 39/1/5 40/1/5
f 37/1/2 34/1/2 36/1/2
f 37/1/2 36/1/2 41/1/2
f 41/1/3 39/1/3 38/1/3
f 41/1/3 38/1/3 37/1/3
f 23/3/1 42/3/1 43/3/1
f 23/3/1 43/3/1 44/3/1
f 23/3/2 44/3/2 45/3/2
f 23/3/2 45/3/2 27/3/2
f 44/3/4 43/3/4 46/3/4
f 44/3/4 46/3/4 45/3/4
f 22/3/1 47/3/1 42/3/1
f 22/3/1 42/3/1 23/3/1
f 29/3/1 48/3/1 47/3/1
f 29/3/1 47/3/1 22/3/1
f 32/3/1 49/3/1 48/3/1
f 32/3/1 48/3/1 29/3/1
f 35/3/1 50/3/1 49/3/1
f 35/3/1 49/3/1 32/3/1
f 40/3/3 51/3/3 50/3/3
f 40/3/3 50/3/3 35/3/3
f 42/3/1 52/3/1 53/3/1
f 42/3/1 53/3/1 43/3/1
f 43/3/4 53/3/4 54/3/4
f 43/3/4 54/3/4 46/3/4
f 47/3/1 55/3/1 52/3/1
f 47/3/1 52/3/1 42/3/1
f 48/3/1 56/3/1 55/3/1
f 48/3/1 55/3/1 47/3/1
f 49/3/1 5/3/1 56/3/1
f 49/3/1 56/3/1 48/3/1
f 50/3/1 6/3/1 5/3/1
f 50/3/1 5/3/1 49/3/1
f 51/3/3 57/3/3 6/3/3
f 51/3/3 6/3/3 50/3/3
f 52/3/1 58/3/1 59/3/1
f 52/3/1 59/3/1 53/3/1
f 59/3/5 58/3/5 60/3/5
f 59/3/5 60/3/5 61/3/5
f 53/3/4 59/3/4 61/3/4
f 53/3/4 61/3/4 54/3/4
f 55/3/1 62/3/1 58/3/1
f 55/3/1 58/3/1 52/3/1
f 56/3/1 63/3/1 62/3/1
f 56/3/1 62/3/1 55/3/1
f 5/3/1 8/3/1 63/3/1
f 5/3/1 63/3/1 56/3/1
f 57/3/3 64/3/3 7/3/3
f 57/3/3 7/3/3 6/3/3
f 62/3/1 65/3/1 66/3/1
f 62/3/1 66/3/1 58/3/1
f 58/3/4 66/3/4 67/3/4
f 58/3/4 67/3/4 60/3/4
f 63/3/1 68/3/1 65/3/1
f 63/3/1 65/3/1 62/3/1
f 8/3/1 12/3/1 68/3/1
f 8/3/1 68/3/1 63/3/1
f 64/3/3 69/3/3 11/3/3
f 64/3/3 11/3/3 7/3/3
f 65/3/1 19/3/1 70/3/1
f 65/3/1 70/3/1 66/3/1
f 66/3/4 70/3/4 71/3/4
f 66/3/4 71/3/4 67/3/4
f 68/3/1 20/3/1 19/3/1
f 68/3/1 19/3/1 65/3/1
f 12/3/1 72/3/1 20/3/1
f 12/3/1 20/3/1 68/3/1
f 11/4/1 73/4/1 72/4/1
f 11/4/1 72/4/1 12/4/1
f 69/4/3 74/4/3 73/4/3
f 69/4/3 73/4/3 11/4/3
f 19/3/1 18/3/1 75/3/1
f 19/3/1 75/3/1 70/3/1
f 70/3/4 75/3/4 76/3/4
f 70/3/4 76/3/4 71/3/4
f 72/3/1 77/3/1 17/3/1
f 72/3/1 17/3/1 20/3/1
f 73/4/1 78/4/1 77/4/1
f 73/4/1 77/4/1 72/4/1
f 74/4/3 79/4/3 78/4/3
f 74/4/3 78/4/3 73/4/3
f 18/3/1 80/3/1 81/3/1
f 18/3/1 81/3/1 75/3/1
f 75/3/4 81/3/4 82/3/4
f 75/3/4 82/3/4 76/3/4
f 17/3/1 83/3/1 80/3/1
f 17/3/1 80/3/1 18/3/1
f 77/3/1 84/3/1 83/3/1
f 77/3/1 83/3/1 17/3/1
f 78/3/1 85/3/1 84/3/1
f 78/3/1 84/3/1 77/3/1
f 84/3/5 85/3/5 86/3/5
f 84/3/5 86/3/5 87/3/5
f 79/3/3 86/3/3 85/3/3
f 79/3/3 85/3/3 78/3/3
f 82/1/6 88/1/6 89/1/6
f 82/1/6 89/1/6 90/1/6
f 80/1/1 91/1/1 92/1/1
f 80/1/1 92/1/1 81/1/1
f 92/1/5 91/1/5 89/1/5
f 92/1/5 89/1/5 88/1/5
f 81/1/4 92/1/4 88/1/4
f 81/1/4 88/1/4 82/1/4
f 83/3/1 93/3/1 91/3/1
f 83/3/1 91/3/1 80/3/1
f 91/3/5 93/3/5 94/3/5
f 91/3/5 94/3/5 89/3/5
f 84/3/1 95/3/1 93/3/1
f 84/3/1 93/3/1 83/3/1
f 93/3/5 95/3/5 96/3/5
f 93/3/5 96/3/5 94/3/5
f 87/3/3 96/3/3 95/3/3
f 87/3/3 95/3/3 84/3/3
f 97/5/1 98/5/1 99/5/1
f 97/5/1 99/5/1 100/5/1
f 99/5/5 98/5/5 101/5/5
f 99/5/5 101/5/5 102/5/5
f 97/5/2 100/5/2 103/5/2
f 97/5/2 103/5/2 104/5/2
f 100/5/4 99/5/4 102/5/4
f 100/5/4 102/5/4 103/5/4
f 105/5/1 45/5/1 98/5/1
f 105/5/1 98/5/1 97/5/1
f 98/5/5 45/5/5 106/5/5
f 98/5/5 106/5/5 101/5/5
f 105/5/2 97/5/2 104/5/2
f 105/5/2 104/5/2 107/5/2
f 25/5/1 27/5/1 45/5/1
f 25/5/1 45/5/1 105/5/1
f 25/5/2 105/5/2 107/5/2
f 25/5/2 107/5/2 108/5/2
f 26/3/2 25/3/2 108/3/2
f 26/3/2 108/3/2 109/3/2
f 30/3/2 26/3/2 109/3/2
f 30/3/2 109/3/2 110/3/2
f 33/3/2 30/3/2 110/3/2
f 33/3/2 110/3/2 111/3/2
f 111/1/6 112/1/6 113/1/6
f 111/1/6 113/1/6 114/1/6
f 36/1/2 33/1/2 111/1/2
f 36/1/2 111/1/2 114/1/2
f 114/1/6 113/1/6 115/1/6
f 114/1/6 115/1/6 116/1/6
f 40/1/5 39/1/5 115/1/5
f 40/1/5 115/1/5 113/1/5
f 41/1/2 36/1/2 114/1/2
f 41/1/2 114/1/2 116/1/2
f 116/1/3 115/1/3 39/1/3
f 116/1/3 39/1/3 41/1/3
f 45/3/4 46/3/4 117/3/4
f 45/3/4 117/3/4 106/3/4
f 113/3/3 118/3/3 51/3/3
f 113/3/3 51/3/3 40/3/3
f 46/3/4 54/3/4 119/3/4
f 46/3/4 119/3/4 117/3/4
f 118/3/3 120/3/3 57/3/3
f 118/3/3 57/3/3 51/3/3
f 54/3/4 61/3/4 121/3/4
f 54/3/4 121/3/4 119/3/4
f 120/3/3 122/3/3 64/3/3
f 120/3/3 64/3/3 57/3/3
f 60/3/1 67/3/1 123/3/1
f 60/3/1 123/3/1 61/3/1
f 61/3/4 123/3/4 124/3/4
f 61/3/4 124/3/4 121/3/4
f 122/3/3 125/3/3 69/3/3
f 122/3/3 69/3/3 64/3/3
f 67/3/1 71/3/1 126/3/1
f 67/3/1 126/3/1 123/3/1
f 123/3/4 126/3/4 127/3/4
f 123/3/4 127/3/4 124/3/4
f 125/6/3 128/6/3 74/6/3
f 125/6/3 74/6/3 69/6/3
f 71/3/1 76/3/1 129/3/1
f 71/3/1 129/3/1 126/3/1
f 126/3/4 129/3/4 130/3/4
f 126/3/4 130/3/4 127/3/4
f 128/4/3 131/4/3 79/4/3
f 128/4/3 79/4/3 74/4/3
f 76/3/1 82/3/1 132/3/1
f 76/3/1 132/3/1 129/3/1
f 132/3/5 82/3/5 133/3/5
f 132/3/5 133/3/5 134/3/5
f 129/3/4 132/3/4 134/3/4
f 129/3/4 134/3/4 130/3/4
f 82/3/5 90/3/5 135/3/5
f 82/3/5 135/3/5 133/3/5
f 87/3/5 86/3/5 136/3/5
f 87/3/5 136/3/5 137/3/5
f 131/3/3 136/3/3 86/3/3
f 131/3/3 86/3/3 79/3/3
f 89/3/5 94/3/5 138/3/5
f 89/3/5 138/3/5 139/3/5
f 90/3/4 89/3/4 139/3/4
f 90/3/4 139/3/4 135/3/4
f 94/3/5 96/3/5 140/3/5
f 94/3/5 140/3/5 138/3/5
f 137/3/3 140/3/3 96/3/3
f 137/3/3 96/3/3 87/3/3
f 102/5/5 101/5/5 141/5/5
f 102/5/5 141/5/5 142/5/5
f 104/5/2 103/5/2 143/5/2
f 104/5/2 143/5/2 144/5/2
f 103/5/4 102/5/4 142/5/4
f 103/5/4 142/5/4 143/5/4
f 107/5/2 104/5/2 144/5/2
f 107/5/2 144/5/2 145/5/2
f 108/5/2 107/5/2 145/5/2
f 108/5/2 145/5/2 146/5/2
f 109/3/2 108/3/2 146/3/2
f 109/3/2 146/3/2 147/3/2
f 110/3/2 109/3/2 147/3/2
f 110/3/2 147/3/2 148/3/2
f 111/3/2 110/3/2 148/3/2
f 111/3/2 148/3/2 149/3/2
f 149/3/3 150/3/3 112/3/3
f 149/3/3 112/3/3 111/3/3
f 141/5/6 151/5/6 152/5/6
f 141/5/6 152/5/6 153/5/6
f 106/5/1 117/5/1 154/5/1
f 106/5/1 154/5/1 101/5/1
f 154/5/5 117/5/5 152/5/5
f 154/5/5 152/5/5 151/5/5
f 101/5/4 154/5/4 151/5/4
f 101/5/4 151/5/4 141/5/4
f 113/3/2 112/3/2 150/3/2
f 113/3/2 150/3/2 155/3/2
f 155/3/3 156/3/3 118/3/3
f 155/3/3 118/3/3 113/3/3
f 117/3/4 119/3/4 157/3/4
f 117/3/4 157/3/4 152/3/4
f 156/3/3 158/3/3 120/3/3
f 156/3/3 120/3/3 118/3/3
f 119/3/4 121/3/4 159/3/4
f 119/3/4 159/3/4 157/3/4
f 158/3/3 160/3/3 122/3/3
f 158/3/3 122/3/3 120/3/3
f 121/3/4 124/3/4 161/3/4
f 121/3/4 161/3/4 159/3/4
f 160/3/3 162/3/3 125/3/3
f 160/3/3 125/3/3 122/3/3
f 124/3/4 127/3/4 163/3/4
f 124/3/4 163/3/4 161/3/4
f 162/6/3 164/6/3 128/6/3
f 162/6/3 128/6/3 125/6/3
f 127/3/4 130/3/4 165/3/4
f 127/3/4 165/3/4 163/3/4
f 164/4/3 166/4/3 131/4/3
f 164/4/3 131/4/3 128/4/3
f 134/3/5 133/3/5 167/3/5
f 134/3/5 167/3/5 168/3/5
f 130/3/4 134/3/4 168/3/4
f 130/3/4 168/3/4 165/3/4
f 133/3/5 135/3/5 169/3/5
f 133/3/5 169/3/5 167/3/5
f 137/3/5 136/3/5 170/3/5
f 137/3/5 170/3/5 171/3/5
f 166/3/3 170/3/3 136/3/3
f 166/3/3 136/3/3 131/3/3
f 139/3/5 138/3/5 172/3/5
f 139/3/5 172/3/5 173/3/5
f 135/3/4 139/3/4 173/3/4
f 135/3/4 173/3/4 169/3/4
f 138/3/5 140/3/5 174/3/5
f 138/3/5 174/3/5 172/3/5
f 171/3/3 174/3/3 140/3/3
f 171/3/3 140/3/3 137/3/3
f 175/5/6 176/5/6 177/5/6
f 175/5/6 177/5/6 178/5/6
f 142/5/5 141/5/5 177/5/5
f 142/5/5 177/5/5 176/5/5
f 144/5/2 143/5/2 175/5/2
f 144/5/2 175/5/2 178/5/2
f 143/5/4 142/5/4 176/5/4
f 143/5/4 176/5/4 175/5/4
f 178/5/6 177/5/6 179/5/6
f 178/5/6 179/5/6 180/5/6
f 141/5/5 153/5/5 179/5/5
f 141/5/5 179/5/5 177/5/5
f 145/5/2 144/5/2 178/5/2
f 145/5/2 178/5/2 180/5/2
f 180/5/6 179/5/6 181/5/6
f 180/5/6 181/5/6 182/5/6
f 146/5/2 145/5/2 180/5/2
f 146/5/2 180/5/2 182/5/2
f 147/3/2 146/3/2 182/3/2
f 147/3/2 182/3/2 183/3/2
f 148/3/2 147/3/2 183/3/2
f 148/3/2 183/3/2 184/3/2
f 149/3/2 148/3/2 184/3/2
f 149/3/2 184/3/2 185/3/2
f 186/1/1 155/1/1 150/1/1
f 186/1/1 150/1/1 149/1/1
f 186/1/2 149/1/2 185/1/2
f 186/1/2 185/1/2 187/1/2
f 188/1/1 189/1/1 155/1/1
f 188/1/1 155/1/1 186/1/1
f 155/1/5 189/1/5 190/1/5
f 155/1/5 190/1/5 191/1/5
f 188/1/2 186/1/2 187/1/2
f 188/1/2 187/1/2 192/1/2
f 192/1/3 190/1/3 189/1/3
f 192/1/3 189/1/3 188/1/3
f 153/3/4 152/3/4 193/3/4
f 153/3/4 193/3/4 179/3/4
f 191/3/3 194/3/3 156/3/3
f 191/3/3 156/3/3 155/3/3
f 152/3/4 157/3/4 195/3/4
f 152/3/4 195/3/4 193/3/4
f 194/3/3 196/3/3 158/3/3
f 194/3/3 158/3/3 156/3/3
f 157/3/4 159/3/4 197/3/4
f 157/3/4 197/3/4 195/3/4
f 196/3/3 198/3/3 160/3/3
f 196/3/3 160/3/3 158/3/3
f 197/3/6 199/3/6 200/3/6
f 197/3/6 200/3/6 201/3/6
f 159/3/4 161/3/4 199/3/4
f 159/3/4 199/3/4 197/3/4
f 198/3/3 202/3/3 162/3/3
f 198/3/3 162/3/3 160/3/3
f 199/3/6 203/3/6 204/3/6
f 199/3/6 204/3/6 200/3/6
f 161/3/4 163/3/4 203/3/4
f 161/3/4 203/3/4 199/3/4
f 202/6/3 205/6/3 164/6/3
f 202/6/3 164/6/3 162/6/3
f 203/3/6 206/3/6 207/3/6
f 203/3/6 207/3/6 204/3/6
f 163/3/4 165/3/4 206/3/4
f 163/3/4 206/3/4 203/3/4
f 205/4/3 208/4/3 166/4/3
f 205/4/3 166/4/3 164/4/3
f 206/3/6 209/3/6 210/3/6
f 206/3/6 210/3/6 207/3/6
f 168/3/5 167/3/5 210/3/5
f 168/3/5 210/3/5 209/3/5
f 165/3/4 168/3/4 209/3/4
f 165/3/4 209/3/4 206/3/4
f 167/3/5 169/3/5 211/3/5
f 167/3/5 211/3/5 210/3/5
f 171/3/5 170/3/5 212/3/5
f 171/3/5 212/3/5 213/3/5
f 208/3/3 212/3/3 170/3/3
f 208/3/3 170/3/3 166/3/3
f 173/3/5 172/3/5 214/3/5
f 173/3/5 214/3/5 215/3/5
f 169/3/4 173/3/4 215/3/4
f 169/3/4 215/3/4 211/3/4
f 172/3/5 174/3/5 216/3/5
f 172/3/5 216/3/5 214/3/5
f 213/3/3 216/3/3 174/3/3
f 213/3/3 174/3/3 171/3/3
f 217/3/6 218/3/6 219/3/6
f 217/3/6 219/3/6 220/3/6
f 183/3/2 182/3/2 217/3/2
f 183/3/2 217/3/2 220/3/2
f 182/3/4 181/3/4 218/3/4
f 182/3/4 218/3/4 217/3/4
f 220/3/6 219/3/6 221/3/6
f 220/3/6 221/3/6 222/3/6
f 184/3/2 183/3/2 220/3/2
f 184/3/2 220/3/2 222/3/2
f 222/3/6 221/3/6 223/3/6
f 222/3/6 223/3/6 224/3/6
f 185/3/2 184/3/2 222/3/2
f 185/3/2 222/3/2 224/3/2
f 224/1/6 223/1/6 225/1/6
f 224/1/6 225/1/6 226/1/6
f 187/1/2 185/1/2 224/1/2
f 187/1/2 224/1/2 226/1/2
f 226/1/6 225/1/6 227/1/6
f 226/1/6 227/1/6 228/1/6
f 191/1/5 190/1/5 227/1/5
f 191/1/5 227/1/5 225/1/5
f 192/1/2 187/1/2 226/1/2
f 192/1/2 226/1/2 228/1/2
f 228/1/3 227/1/3 190/1/3
f 228/1/3 190/1/3 192/1/3
f 229/3/6 230/3/6 231/3/6
f 229/3/6 231/3/6 218/3/6
f 181/3/2 179/3/2 229/3/2
f 181/3/2 229/3/2 218/3/2
f 179/3/4 193/3/4 230/3/4
f 179/3/4 230/3/4 229/3/4
f 218/3/6 231/3/6 232/3/6
f 218/3/6 232/3/6 219/3/6
f 219/3/6 232/3/6 233/3/6
f 219/3/6 233/3/6 221/3/6
f 221/3/6 233/3/6 234/3/6
f 221/3/6 234/3/6 223/3/6
f 223/3/6 234/3/6 235/3/6
f 223/3/6 235/3/6 225/3/6
f 225/3/3 235/3/3 194/3/3
f 225/3/3 194/3/3 191/3/3
f 230/3/6 236/3/6 237/3/6
f 230/3/6 237/3/6 231/3/6
f 193/3/4 195/3/4 236/3/4
f 193/3/4 236/3/4 230/3/4
f 231/3/6 237/3/6 238/3/6
f 231/3/6 238/3/6 232/3/6
f 232/3/6 238/3/6 239/3/6
f 232/3/6 239/3/6 233/3/6
f 233/3/6 239/3/6 240/3/6
f 233/3/6 240/3/6 234/3/6
f 234/3/6 240/3/6 241/3/6
f 234/3/6 241/3/6 235/3/6
f 235/3/3 241/3/3 196/3/3
f 235/3/3 196/3/3 194/3/3
f 236/3/6 242/3/6 243/3/6
f 236/3/6 243/3/6 237/3/6
f 197/3/5 201/3/5 243/3/5
f 197/3/5 243/3/5 242/3/5
f 195/3/4 197/3/4 242/3/4
f 195/3/4 242/3/4 236/3/4
f 237/3/6 243/3/6 244/3/6
f 237/3/6 244/3/6 238/3/6
f 238/3/6 244/3/6 245/3/6
f 238/3/6 245/3/6 239/3/6
f 239/3/6 245/3/6 246/3/6
f 239/3/6 246/3/6 240/3/6
f 241/3/3 247/3/3 198/3/3
f 241/3/3 198/3/3 196/3/3
f 243/3/6 248/3/6 249/3/6
f 243/3/6 249/3/6 244/3/6
f 201/3/4 200/3/4 248/3/4
f 201/3/4 248/3/4 243/3/4
f 244/3/6 249/3/6 250/3/6
f 244/3/6 250/3/6 245/3/6
f 245/3/6 250/3/6 251/3/6
f 245/3/6 251/3/6 246/3/6
f 247/3/3 252/3/3 202/3/3
f 247/3/3 202/3/3 198/3/3
f 248/3/6 253/3/6 254/3/6
f 248/3/6 254/3/6 249/3/6
f 200/3/4 204/3/4 253/3/4
f 200/3/4 253/3/4 248/3/4
f 249/3/6 254/3/6 255/3/6
f 249/3/6 255/3/6 250/3/6
f 250/3/6 255/3/6 256/3/6
f 250/3/6 256/3/6 251/3/6
f 251/4/6 256/4/6 257/4/6
f 251/4/6 257/4/6 252/4/6
f 252/4/3 257/4/3 205/4/3
f 252/4/3 205/4/3 202/4/3
f 253/3/6 258/3/6 259/3/6
f 253/3/6 259/3/6 254/3/6
f 204/3/4 207/3/4 258/3/4
f 204/3/4 258/3/4 253/3/4
f 255/3/6 260/3/6 261/3/6
f 255/3/6 261/3/6 256/3/6
f 256/4/6 261/4/6 262/4/6
f 256/4/6 262/4/6 257/4/6
f 257/4/3 262/4/3 208/4/3
f 257/4/3 208/4/3 205/4/3
f 258/3/6 263/3/6 264/3/6
f 258/3/6 264/3/6 259/3/6
f 207/3/4 210/3/4 263/3/4
f 207/3/4 263/3/4 258/3/4
f 259/3/6 264/3/6 265/3/6
f 259/3/6 265/3/6 260/3/6
f 260/3/6 265/3/6 266/3/6
f 260/3/6 266/3/6 261/3/6
f 261/3/6 266/3/6 267/3/6
f 261/3/6 267/3/6 262/3/6
f 213/3/5 212/3/5 267/3/5
f 213/3/5 267/3/5 266/3/5
f 262/3/3 267/3/3 212/3/3
f 262/3/3 212/3/3 208/3/3
f 263/1/6 268/1/6 269/1/6
f 263/1/6 269/1/6 264/1/6
f 211/1/1 215/1/1 270/1/1
f 211/1/1 270/1/1 210/1/1
f 270/1/5 215/1/5 269/1/5
f 270/1/5 269/1/5 268/1/5
f 210/1/4 270/1/4 268/1/4
f 210/1/4 268/1/4 263/1/4
f 264/3/6 269/3/6 271/3/6
f 264/3/6 271/3/6 265/3/6
f 215/3/5 214/3/5 271/3/5
f 215/3/5 271/3/5 269/3/5
f 265/3/6 271/3/6 272/3/6
f 265/3/6 272/3/6 266/3/6
f 214/3/5 216/3/5 272/3/5
f 214/3/5 272/3/5 271/3/5
f 266/3/3 272/3/3 216/3/3
f 266/3/3 216/3/3 213/3/3
f 273/1/6 274/1/6 275/1/6
f 273/1/6 275/1/6 276/1/6
f 241/1/2 240/1/2 273/1/2
f 241/1/2 273/1/2 276/1/2
f 276/1/3 275/1/3 247/1/3
f 276/1/3 247/1/3 241/1/3
f 240/1/4 246/1/4 274/1/4
f 240/1/4 274/1/4 273/1/4
f 274/1/6 277/1/6 278/1/6
f 274/1/6 278/1/6 275/1/6
f 251/1/5 252/1/5 278/1/5
f 251/1/5 278/1/5 277/1/5
f 275/1/3 278/1/3 252/1/3
f 275/1/3 252/1/3 247/1/3
f 246/1/4 251/1/4 277/1/4
f 246/1/4 277/1/4 274/1/4
f 279/2/6 280/2/6 281/2/6
f 279/2/6 281/2/6 282/2/6
f 259/2/5 260/2/5 281/2/5
f 259/2/5 281/2/5 280/2/5
f 255/2/2 254/2/2 279/2/2
f 255/2/2 279/2/2 282/2/2
f 282/2/3 281/2/3 260/2/3
f 282/2/3 260/2/3 255/2/3
f 254/2/4 259/2/4 280/2/4
f 254/2/4 280/2/4 279/2/4
